:SAMPLES-PER-SECOND 30
:FRAME-RANGE 1-3358
:FULLY-SPECIFIED
:DEGREES
2939
root  18.5579 37.6944 9.38699 125.557 -85.6525 -127.677
RightUpLeg  -20.6876 -5.59271 3.48771
RightLeg  34.5531 -4.92079 -3.91134
RightFoot  -10.8666 -0.0920544 4.41009
RightToes  -5.8209e-011 0 -3.6325e-017
Spine  11.8342 -2.51587 8.88737
Spine1  0.223825 -2.21309 5.16697
HEad  -2.19435 2.05869 -4.16263
LeftShoulder1  1.75037 -2.09323 -25.0872
LeftArm  2.94746 -27.7284 -33.4857
LeftForeArm  -4.25886 -18.4963 -8.3219
LeftHand  0.423537 -3.10082 -5.56704
RightShoulder  8.50336 19.6629 30.6478
RightArm  -21.473 17.8353 5.36927
RightForeArm  -8.8416 10.2282 11.8382
RightHand  0.509339 4.57167 5.6349
LeftUpLeg  -21.117 22.0857 7.33799
LeftLeg  69.4877 0.0142597 0.855061
LeftFoot  -0.381988 0.981663 -10.1906
LeftToes  -4.03819e-010 -8.71445e-011 8.52097e-011
2940
root  17.4332 38.0759 9.5432 141.127 -85.3684 -143.258
RightUpLeg  -17.3901 -4.64554 2.36948
RightLeg  31.9178 -5.02228 -3.63041
RightFoot  -11.9085 -0.0569253 4.82725
RightToes  -5.8209e-011 0 -3.6325e-017
Spine  11.7251 -2.03813 8.788
Spine1  -0.114076 -1.75628 4.47103
HEad  -1.19346 1.96958 -4.32529
LeftShoulder1  1.7605 -2.14208 -24.9924
LeftArm  2.57309 -28.7533 -32.838
LeftForeArm  -3.66853 -18.4049 -8.37028
LeftHand  0.408587 -3.17459 -5.3107
RightShoulder  9.15899 21.7692 30.1299
RightArm  -21.3026 19.9983 6.37846
RightForeArm  -8.41231 10.6961 11.6659
RightHand  0.567292 4.78731 6.15979
LeftUpLeg  -24.2554 22.1117 6.62433
LeftLeg  64.4186 -1.09882 -1.86757
LeftFoot  -2.47114 0.790509 -9.98342
LeftToes  -4.03819e-010 -8.71445e-011 8.52097e-011
2941
root  16.3306 38.3987 9.67917 154.082 -84.8654 -156.248
RightUpLeg  -14.3855 -3.32905 1.2462
RightLeg  29.6814 -5.40313 -3.57793
RightFoot  -12.6973 -0.0230397 5.33283
RightToes  -5.8209e-011 0 -3.6325e-017
Spine  11.5916 -1.51398 8.3556
Spine1  -0.56227 -1.28057 3.73435
HEad  -0.405354 1.72535 -4.29092
LeftShoulder1  1.78363 -2.28205 -24.6228
LeftArm  0.95548 -30.2972 -31.9731
LeftForeArm  -1.52926 -17.8384 -8.71163
LeftHand  0.3822 -3.27248 -4.88954
RightShoulder  9.80976 23.7149 29.8784
RightArm  -20.1865 22.0733 7.43174
RightForeArm  -9.35599 11.5753 11.4633
RightHand  0.645654 5.00057 6.89096
LeftUpLeg  -26.117 21.3624 6.38131
LeftLeg  56.5756 -1.48434 -1.92415
LeftFoot  -3.84309 0.712882 -10.5065
LeftToes  -4.03819e-010 -8.71445e-011 8.52097e-011
2942
root  15.3164 38.5973 9.80597 162.546 -83.7166 -164.602
RightUpLeg  -12.2301 -2.07283 0.471698
RightLeg  28.2813 -5.20094 -3.27448
RightFoot  -13.4329 0.0123919 5.66935
RightToes  -5.8209e-011 0 -3.6325e-017
Spine  11.4774 -0.951374 8.02629
Spine1  -0.930029 -0.691447 2.61793
HEad  -0.071556 1.33199 -4.0037
LeftShoulder1  1.78285 -2.38766 -24.0302
LeftArm  -2.54308 -32.2856 -30.9775
LeftForeArm  0.701462 -16.8318 -9.33544
LeftHand  0.331866 -3.06693 -4.33384
RightShoulder  10.5556 25.8828 29.6945
RightArm  -20.1676 24.2971 8.37591
RightForeArm  -9.50256 11.772 11.4113
RightHand  0.752633 5.20535 7.91004
LeftUpLeg  -26.7102 20.4919 7.06722
LeftLeg  46.4073 -1.39194 -1.1607
LeftFoot  -3.6014 0.686075 -9.80643
LeftToes  -4.03819e-010 -8.71445e-011 8.52097e-011
2943
root  14.3624 38.7118 9.93447 167.729 -82.1503 -169.757
RightUpLeg  -10.3884 -0.732826 -0.148252
RightLeg  27.3527 -4.81192 -2.93923
RightFoot  -14.2572 0.0572608 6.04695
RightToes  -5.8209e-011 0 -3.6325e-017
Spine  11.4417 -0.400938 7.28663
Spine1  -0.919802 -0.148005 1.7729
HEad  -0.0942161 1.2456 -3.52896
LeftShoulder1  1.76532 -2.45149 -23.3798
LeftArm  -7.10215 -34.4202 -29.7403
LeftForeArm  1.78537 -15.7707 -9.94659
LeftHand  0.27743 -2.57231 -3.85055
RightShoulder  11.544 28.5606 29.6933
RightArm  -21.4977 26.437 8.91971
RightForeArm  -9.74872 11.2464 11.5768
RightHand  0.885553 5.27833 9.28665
LeftUpLeg  -25.6714 19.4262 8.49728
LeftLeg  34.1974 -1.73135 -0.916748
LeftFoot  -1.67857 0.910809 -10.6349
LeftToes  -4.03819e-010 -8.71445e-011 8.52097e-011
2944
root  13.4394 38.6907 10.0967 170.769 -80.3712 -172.818
RightUpLeg  -9.16972 1.0636 -0.673424
RightLeg  27.5682 -4.67821 -2.88442
RightFoot  -15.5263 0.131163 6.46792
RightToes  -5.8209e-011 0 -3.6325e-017
Spine  11.4701 0.164739 6.22516
Spine1  -0.666554 0.383772 1.27704
HEad  -0.498892 1.24146 -2.8094
LeftShoulder1  1.73397 -2.48045 -22.6754
LeftArm  -11.4437 -36.7798 -28.5913
LeftForeArm  2.85488 -14.7149 -10.4804
LeftHand  0.22134 -1.93093 -3.3557
RightShoulder  12.6587 31.5277 29.7194
RightArm  -25.329 28.3856 8.94421
RightForeArm  -8.21854 9.46528 11.8225
RightHand  1.04847 5.4987 10.8053
LeftUpLeg  -23.72 17.3437 10.4073
LeftLeg  22.5509 -4.19861 -1.58974
LeftFoot  -0.829339 1.16271 -12.5468
LeftToes  -4.03819e-010 -8.71445e-011 8.52097e-011
2945
root  12.4879 38.4866 10.3231 172.714 -78.4988 -175.132
RightUpLeg  -8.427 2.76614 -1.36022
RightLeg  29.5042 -4.33309 -2.8895
RightFoot  -17.6133 0.259615 6.91308
RightToes  -5.8209e-011 0 -3.6325e-017
Spine  11.9482 0.697698 5.21869
Spine1  -0.648378 0.965419 0.716707
HEad  -0.956452 1.22618 -1.89731
LeftShoulder1  1.72443 -2.6062 -21.8788
LeftArm  -15.8186 -39.3418 -27.5767
LeftForeArm  4.96646 -13.2863 -11.1215
LeftHand  0.200098 -1.5511 -3.21992
RightShoulder  13.548 34.0811 29.524
RightArm  -29.3 30.2019 9.12683
RightForeArm  -7.09577 7.0316 11.8733
RightHand  1.14692 5.43566 11.9146
LeftUpLeg  -21.7704 13.9918 12.3623
LeftLeg  15.0463 -8.44982 -2.32717
LeftFoot  -0.573883 1.34226 -14.149
LeftToes  -4.03819e-010 -8.71445e-011 8.52097e-011
2946
root  11.5181 38.084 10.6955 175.111 -76.3017 -177.834
RightUpLeg  -8.7599 3.9169 -2.75339
RightLeg  33.165 -2.98823 -2.35311
RightFoot  -20.3491 0.454852 7.519
RightToes  -5.8209e-011 0 -3.6325e-017
Spine  12.5426 1.20219 4.71307
Spine1  -0.804192 1.71556 -0.610744
HEad  -1.29757 1.31803 -0.941279
LeftShoulder1  1.75803 -2.92271 -20.958
LeftArm  -20.6947 -41.945 -26.77
LeftForeArm  7.37601 -11.6111 -11.6936
LeftHand  0.195725 -1.23825 -3.32711
RightShoulder  14.0763 36.2214 28.8059
RightArm  -32.1688 32.0192 9.68451
RightForeArm  -7.94323 4.51585 11.5155
RightHand  1.23811 5.22529 13.1457
LeftUpLeg  -20.9507 10.9642 13.1448
LeftLeg  13.4954 -11.0296 -2.77009
LeftFoot  -1.73797 1.31072 -15.4034
LeftToes  -4.03819e-010 -8.71445e-011 8.52097e-011
2947
root  10.4918 37.6456 11.1875 176.61 -74.1 -179.636
RightUpLeg  -9.33923 3.7378 -4.72394
RightLeg  37.1111 -0.718964 -0.850378
RightFoot  -22.6774 0.713383 8.72591
RightToes  -5.8209e-011 0 -3.6325e-017
Spine  12.9095 1.48279 4.58683
Spine1  -0.702902 2.33394 -2.26848
HEad  -1.79953 1.70173 -0.249258
LeftShoulder1  1.79113 -3.15801 -20.4583
LeftArm  -20.9144 -43.7806 -26.2415
LeftForeArm  2.63996 -13.1432 -11.0143
LeftHand  0.212038 -0.484792 -4.16676
RightShoulder  14.382 38.2229 27.7248
RightArm  -33.8037 33.4599 10.3574
RightForeArm  -10.7957 3.01004 10.9293
RightHand  1.32429 4.97469 14.4266
LeftUpLeg  -20.5422 10.8602 12.3839
LeftLeg  15.4047 -12.2515 -3.52643
LeftFoot  3.65679 2.26539 -17.2677
LeftToes  -4.03819e-010 -8.71445e-011 8.52097e-011
2948
root  9.62242 37.2033 11.6517 179.879 -71.031 177.18
RightUpLeg  -12.1019 3.54763 -7.58836
RightLeg  42.9793 1.76026 1.46211
RightFoot  -23.313 0.990943 10.9344
RightToes  -5.8209e-011 0 -3.6325e-017
Spine  14.1335 2.31854 2.45199
Spine1  -1.80641 3.10396 -3.21033
HEad  -2.57591 2.35386 0.217679
LeftShoulder1  1.76187 -3.14481 -20.0442
LeftArm  -14.3839 -43.8574 -27.0904
LeftForeArm  -6.86238 -18.5859 -7.94563
LeftHand  0.256532 -0.0391995 -5.52505
RightShoulder  14.9352 39.8354 27.6366
RightArm  -35.1757 35.0919 10.3732
RightForeArm  -12.8711 2.09275 10.5047
RightHand  1.26396 4.61174 14.2831
LeftUpLeg  -22.7268 13.2521 10.909
LeftLeg  22.701 -11.8623 -5.07068
LeftFoot  3.39221 1.73218 -13.5075
LeftToes  -4.03819e-010 -8.71445e-011 8.52097e-011
2949
root  8.81555 36.8567 12.1233 -176.804 -68.4577 174.212
RightUpLeg  -16.5476 1.17244 -11.0126
RightLeg  50.5602 3.76975 4.55161
RightFoot  -20.6499 1.06602 14.7492
RightToes  -5.8209e-011 0 -3.6325e-017
Spine  15.2254 3.06314 0.451865
Spine1  -3.14403 3.58693 -3.28725
HEad  -3.83487 2.81995 0.76937
LeftShoulder1  1.75778 -3.21883 -19.6665
LeftArm  -11.563 -43.518 -28.125
LeftForeArm  -9.15742 -23.2194 -5.51395
LeftHand  0.256933 0.283786 -5.93074
RightShoulder  15.5334 40.9751 28.0457
RightArm  -36.6736 36.5889 10.6355
RightForeArm  -13.4051 2.11579 10.0391
RightHand  1.06886 4.05702 12.7971
LeftUpLeg  -24.7557 14.7358 9.17891
LeftLeg  28.8903 -10.4377 -5.84154
LeftFoot  0.180948 1.19643 -11.8382
LeftToes  -4.03819e-010 -8.71445e-011 8.52097e-011
2950
root  8.06803 36.8818 12.6217 -176.22 -65.3107 173.855
RightUpLeg  -20.6113 -2.41177 -13.1927
RightLeg  55.7823 4.41917 6.55669
RightFoot  -14.0608 0.351658 18.7101
RightToes  -5.8209e-011 0 -3.6325e-017
Spine  16.1866 3.35054 1.21115
Spine1  -3.62471 4.40911 -6.06177
HEad  -4.68897 3.86221 0.823105
LeftShoulder1  1.74651 -3.14061 -19.8144
LeftArm  -17.6043 -41.8122 -28.2198
LeftForeArm  -7.61755 -28.552 -6.57465
LeftHand  0.15513 1.95419 -5.71549
RightShoulder  16.4584 42.2387 29.0456
RightArm  -38.1666 37.2973 11.2956
RightForeArm  -15.9516 4.08607 9.8594
RightHand  0.949818 3.54761 12.0361
LeftUpLeg  -24.4817 16.2382 8.24672
LeftLeg  31.1682 -8.79573 -5.34992
LeftFoot  -2.00821 0.886525 -10.6909
LeftToes  -4.03819e-010 -8.71445e-011 8.52097e-011
